<?xml version="1.0" encoding="utf-8"?>
<!-- Generator: Adobe Illustrator 26.0.1, SVG Export Plug-In . SVG Version: 6.00 Build 0)  -->
<svg version="1.1" id="Layer_1" xmlns="http://www.w3.org/2000/svg" xmlns:xlink="http://www.w3.org/1999/xlink" x="0px" y="0px"
	 viewBox="0 0 1056.1 379.7" style="enable-background:new 0 0 1056.1 379.7;" xml:space="preserve">
<style type="text/css">
	.st0{fill:#0134C3;}
	.st1{font-family:'Montserrat-Light';}
	.st2{font-size:94.5972px;}
	.st3{fill:#8C1303;}
	.st4{fill:#0277FC;}
	.st5{fill:#FFD502;}
	.st6{fill:#C55000;}
	.st7{fill:#001122;}
</style>
<g>
	<text transform="matrix(1 0 0 1 23.9579 355.0028)" class="st0 st1 st2">ecommerce</text>
	<g>
		<g>
			<path class="st3" d="M973.7,265.5c-19.8-12.7-36.6-35.3-40.4-75c-1.3,0.3-3,0.3-5.2,0c-0.5-0.1-1-0.2-1.4-0.2
				c-30.9,99.9,72.6,125.5,72.6,125.5L973.7,265.5z"/>
			<path class="st0" d="M936.4,186.7c-0.4,2.1-1.3,3.3-3.1,3.8c10.3,108.5,118,89.1,118,89.1L936.4,186.7z"/>
			<path class="st4" d="M936.8,126.2c-11.2-10.6-22.3-21.4-33.7-31.9c-1-0.9-1.7-1.8-2.1-2.7c-3.3,3.7-8.1,6.1-13.4,6.1
				c-4.3,0-8.2-1.5-11.3-4c-0.6,1.7-1.9,3.2-2.6,4.8c-18.9,40.8,7.7,85.9,54.3,92.2c6.9,0.9,8.7-0.9,8.6-7.3
				C936.4,164.3,936.7,145.2,936.8,126.2z"/>
			<path class="st5" d="M1056,117.9c-1.6-46.7-37.3-93.7-82.2-107.9c-44.1-13.9-84.1-6.5-119.7,23.3c-2.2,1.9-4,4.2-6,6.4
				c9.2,8.9,18.3,17.9,26.7,27.6c3.3-3.3,7.8-5.4,12.8-5.4c9.9,0,17.9,8,17.9,17.9c0,4.5-1.7,8.7-4.5,11.8c0.4,0.9,1.1,1.8,2.1,2.7
				c11.3,10.5,22.4,21.2,33.6,31.8c3.2-0.2,6.4-0.1,9.5,0.1c4.8,0.4,9.6,0.2,14.5-0.1c1.6-0.1,3.3,0.2,4.9,0.2
				c27.5-0.1,54.9-0.3,82.4,0C1054.7,126.5,1056.3,124.3,1056,117.9z"/>
			<path class="st6" d="M926.6,190.3c-45.7-7-71.6-51.6-52.9-92c0.7-1.6,2-3.1,2.6-4.8c-4-3.3-6.6-8.3-6.6-13.9
				c0-4.9,2-9.4,5.2-12.6c-8.4-9.7-17.6-18.7-26.9-27.6c-27.8,27.1-39.2,60.6-34.9,98.6c6.1,54.5,42.9,94.1,96.7,106.5
				c4.5,0.6,9,1.7,13.5,2.1C919.5,231.2,919.7,212.6,926.6,190.3z"/>
			<circle class="st7" cx="887.6" cy="79.7" r="17.9"/>
		</g>
		<g>
			<path class="st0" d="M0,159.3c0-49.8,38.4-85.2,92.2-85.2c34.7,0,62.1,15.1,74.1,42.1l-37.2,20c-8.9-15.7-22.1-22.8-37.2-22.8
				c-24.3,0-43.4,16.9-43.4,45.8s19.1,45.8,43.4,45.8c15.1,0,28.3-6.8,37.2-22.8l37.2,20.3c-12,26.4-39.4,41.8-74.1,41.8
				C38.4,244.5,0,209.1,0,159.3z"/>
			<path class="st0" d="M340.4,147.6V242h-44.9v-20.6c-8.9,15.1-26.1,23.1-50.4,23.1c-38.7,0-61.8-21.5-61.8-50.1
				c0-29.2,20.6-49.5,71-49.5h38.1c0-20.6-12.3-32.6-38.1-32.6c-17.5,0-35.7,5.8-47.7,15.4l-17.2-33.5c18.1-12.9,44.9-20,71.3-20
				C311.2,74.1,340.4,97.5,340.4,147.6z M292.4,189.7v-16.9h-32.9c-22.4,0-29.5,8.3-29.5,19.4c0,12,10.1,20,27.1,20
				C273,212.2,286.9,204.8,292.4,189.7z"/>
			<path class="st0" d="M486.4,74.1v44.3c-4-0.3-7.1-0.6-10.8-0.6c-26.4,0-44,14.5-44,46.1V242h-48V76.6h45.8v21.8
				C441.2,82.4,460.9,74.1,486.4,74.1z"/>
			<path class="st0" d="M509.2,26.8c0-15.1,12-26.8,29.8-26.8c17.8,0,29.8,11.1,29.8,25.8c0,16-12,27.7-29.8,27.7
				C521.2,53.5,509.2,41.8,509.2,26.8z M515,76.6h48V242h-48V76.6z"/>
			<path class="st0" d="M787.8,159.3c0,52-36,85.2-82.4,85.2c-22.1,0-40-7.1-52-21.5V242h-45.8V13.8h48v80.3
				c12.3-13.5,29.2-20,49.8-20C751.8,74.1,787.8,107.3,787.8,159.3z M739.2,159.3c0-28.6-18.1-45.8-42.1-45.8
				c-24,0-42.1,17.2-42.1,45.8c0,28.6,18.1,45.8,42.1,45.8C721,205.1,739.2,187.9,739.2,159.3z"/>
		</g>
	</g>
</g>
</svg>
